<?xml version="1.0" standalone="no"?>
<!DOCTYPE svg PUBLIC "-//W3C//DTD SVG 20010904//EN"
 "http://www.w3.org/TR/2001/REC-SVG-20010904/DTD/svg10.dtd">
<svg version="1.0" xmlns="http://www.w3.org/2000/svg"
 width="612.000000pt" height="408.000000pt" viewBox="0 0 612.000000 408.000000"
 preserveAspectRatio="xMidYMid meet">

<g transform="translate(0.000000,408.000000) scale(0.100000,-0.100000)"
fill="#000000" stroke="none">
<path d="M0 2040 l0 -2040 1468 3 1467 3 120 30 c66 16 135 38 154 47 19 9 44
17 57 17 12 0 35 5 51 11 15 6 57 15 93 20 35 5 69 14 74 19 6 6 21 10 36 10
31 1 147 29 260 64 46 15 130 33 185 41 55 9 123 22 150 30 28 8 136 35 240
60 314 76 340 83 395 101 25 9 81 24 125 34 44 10 100 24 124 30 24 6 50 9 57
6 7 -3 18 1 24 9 6 8 26 17 43 21 18 3 40 11 51 16 17 9 17 11 -5 21 -12 7
-24 18 -27 25 -3 11 0 12 18 2 12 -6 61 -13 108 -15 48 -2 111 -6 141 -11 50
-6 54 -5 47 11 -5 15 -2 17 26 11 43 -8 148 -17 125 -10 -26 8 -10 24 26 24
18 0 41 7 51 15 10 8 23 12 27 9 14 -8 139 28 132 39 -4 6 10 7 40 3 27 -4 48
-3 51 3 4 6 15 7 29 2 12 -5 46 -12 74 -16 92 -12 83 -193 83 1709 l0 1686
-1009 0 c-1001 0 -1010 0 -1016 -20 -10 -31 -40 -43 -59 -24 -9 8 -16 22 -16
30 0 10 -14 14 -56 14 l-55 0 -31 -67 c-64 -143 -79 -170 -128 -238 -60 -82
-87 -132 -95 -172 -7 -43 -30 -94 -73 -166 -21 -34 -48 -84 -61 -112 -13 -27
-27 -57 -31 -65 -4 -8 -20 -15 -36 -15 l-29 0 -2 140 c-2 133 -3 144 -35 222
-18 45 -40 92 -49 104 -17 23 -17 23 -43 -29 -16 -31 -26 -68 -26 -94 0 -24
-7 -79 -15 -123 -8 -44 -14 -112 -15 -152 0 -39 -4 -75 -10 -78 -5 -3 -25 10
-43 30 -38 40 -47 34 -47 -29 0 -43 -23 -72 -66 -86 -43 -14 -136 -7 -166 12
-28 19 -59 115 -43 132 7 6 20 27 29 45 26 48 64 88 118 121 47 29 48 31 42
69 -12 76 40 163 110 182 29 8 40 19 58 56 20 42 114 143 169 180 35 25 60 54
75 90 8 18 14 35 14 38 0 3 -783 5 -1740 5 l-1740 0 0 -2040z m1466 1359 c122
-38 236 -144 301 -279 42 -86 38 -84 168 -120 44 -12 107 -31 140 -41 162 -49
161 -48 191 -32 16 8 65 33 108 55 59 30 100 61 163 123 45 46 83 90 83 98 0
37 89 97 144 97 37 0 60 -38 43 -73 -10 -22 -20 -27 -56 -29 -58 -4 -64 -24
-10 -33 23 -4 56 -13 74 -21 37 -15 165 -132 165 -151 0 -7 -16 -15 -35 -19
-35 -6 -69 -39 -59 -56 3 -5 0 -15 -6 -23 -7 -8 -9 -15 -4 -15 4 0 1 -6 -8
-12 -19 -16 -30 -68 -14 -68 6 0 4 -5 -4 -10 -8 -6 -32 -8 -52 -4 -57 9 -119
-5 -125 -27 -3 -12 -21 -23 -47 -30 -22 -6 -51 -16 -63 -22 -19 -8 -35 -4 -90
24 -37 19 -74 34 -82 34 -9 0 -21 4 -28 8 -20 12 -21 -5 -6 -78 43 -211 256
-1141 263 -1149 14 -14 173 -46 198 -39 33 8 281 265 355 367 47 64 74 91 112
112 183 99 317 183 360 225 34 33 82 63 150 95 119 55 118 55 440 30 142 -11
401 -20 676 -24 373 -6 449 -9 464 -22 20 -17 65 -85 65 -99 0 -8 -52 -8 -70
-1 -3 1 -8 2 -12 1 -5 0 -8 4 -8 10 0 6 -9 8 -20 4 -12 -4 -26 -2 -33 3 -7 6
-25 8 -42 6 -16 -3 -80 -4 -140 -4 -158 1 -345 -21 -345 -41 0 -5 7 -6 15 -3
8 4 15 1 15 -5 0 -7 -20 -8 -62 -3 -94 11 -255 9 -268 -4 -8 -8 -6 -19 4 -40
9 -15 12 -31 8 -35 -41 -35 -151 -119 -155 -119 -3 0 5 32 18 70 18 54 23 83
18 120 -6 49 -6 50 -42 52 -157 7 -216 -31 -331 -214 -56 -88 -86 -113 -74
-60 3 15 15 42 25 60 21 36 26 92 8 92 -5 0 -7 5 -4 10 4 6 2 17 -5 25 -7 9
-8 15 0 20 5 3 10 15 10 26 0 11 5 17 10 14 6 -4 10 5 10 19 0 14 4 25 8 24
13 -5 82 68 82 86 0 13 -7 16 -32 12 -18 -2 -62 -7 -98 -11 -62 -8 -67 -11
-126 -69 -130 -128 -155 -146 -206 -146 -22 0 -49 -11 -74 -29 -21 -16 -49
-32 -61 -35 -13 -4 -23 -12 -23 -17 0 -5 -5 -9 -11 -9 -6 0 -24 -13 -41 -30
-16 -16 -37 -30 -47 -30 -10 0 -26 -9 -36 -20 -18 -20 -45 -27 -45 -12 0 14
45 49 71 55 32 9 55 24 47 33 -9 9 -108 -37 -102 -48 3 -4 -6 -13 -20 -20 -14
-6 -26 -17 -26 -24 0 -7 -6 -14 -12 -17 -8 -2 -9 -8 -4 -13 5 -5 11 -4 13 4 6
17 43 15 43 -2 0 -8 -13 -23 -30 -33 -16 -9 -30 -24 -30 -32 0 -11 -5 -10 -21
5 -22 19 -22 19 -9 -5 12 -22 10 -27 -16 -48 -16 -13 -43 -37 -60 -53 -16 -17
-36 -30 -44 -30 -11 0 -11 -3 -2 -12 8 -8 8 -17 1 -30 -8 -16 -13 -17 -25 -7
-8 6 -17 9 -21 5 -4 -3 2 -13 13 -21 18 -14 18 -14 1 -15 -10 0 -44 -25 -75
-55 -31 -30 -61 -55 -67 -55 -6 0 -16 -9 -23 -21 -12 -19 -11 -20 7 -14 39 12
31 -17 -20 -68 -58 -58 -80 -99 -72 -139 6 -33 5 -33 149 -54 66 -10 121 -21
124 -24 9 -13 140 -23 140 -11 0 6 10 11 23 11 23 1 89 27 72 30 -5 0 -30 5
-55 10 -33 6 -52 4 -72 -6 -35 -18 -47 -18 -22 1 18 14 18 14 -7 15 -14 0 -29
-4 -35 -9 -5 -5 -27 -12 -49 -15 l-40 -5 38 10 c49 14 47 27 -5 35 l-41 7 34
30 c19 16 61 55 94 86 l60 56 110 1 c89 1 124 6 182 25 l71 25 6 -30 c6 -26
39 -63 140 -152 28 -25 28 -26 9 -43 -10 -10 -36 -21 -57 -25 -21 -4 -35 -10
-32 -13 3 -3 1 -12 -5 -20 -8 -9 -33 -13 -78 -12 -48 1 -59 3 -41 9 19 6 7 9
-45 11 -38 1 -76 2 -82 2 -7 -1 -13 4 -13 9 0 5 -12 0 -26 -11 -14 -11 -46
-24 -72 -28 -41 -7 -33 -9 68 -14 63 -4 187 -14 275 -22 88 -9 217 -18 286
-22 159 -7 337 -29 484 -59 64 -14 235 -39 445 -65 78 -10 112 -23 98 -36 -7
-7 -172 -36 -458 -80 -124 -19 -263 -41 -310 -49 -47 -9 -229 -38 -405 -65
-382 -60 -880 -140 -1135 -182 -102 -16 -284 -45 -405 -64 -121 -19 -291 -46
-378 -59 -371 -59 -530 -78 -639 -74 -115 4 -134 12 -164 70 -20 38 -18 52 12
81 30 30 26 43 -15 52 -41 9 -73 49 -109 137 -18 43 -32 80 -32 83 0 12 72 36
91 30 11 -4 19 -2 19 4 0 6 -7 11 -15 11 -7 0 -37 5 -65 11 -41 9 -51 15 -56
36 -8 32 16 53 59 53 38 0 31 24 -9 28 -98 9 -126 30 -82 64 l23 18 -26 0
c-28 0 -68 24 -57 35 8 8 158 -16 158 -26 0 -4 17 -10 37 -14 21 -4 62 -15 92
-26 50 -17 57 -17 78 -4 34 23 28 28 -22 20 -56 -8 -189 30 -181 52 4 10 -7
13 -46 13 -51 0 -138 25 -138 40 0 9 66 26 136 36 40 5 65 1 115 -17 35 -12
68 -26 74 -31 5 -4 28 -8 51 -8 24 0 45 -4 48 -9 3 -4 26 -14 52 -21 25 -7 48
-19 50 -25 6 -14 91 -9 110 6 6 5 39 12 73 15 33 4 61 10 61 13 0 4 -46 1
-102 -6 -96 -11 -108 -11 -175 9 -40 11 -70 24 -68 29 3 4 34 11 70 14 36 4
68 12 72 18 4 7 -10 8 -43 4 -145 -19 -180 -19 -236 -2 -32 9 -60 20 -63 25
-3 5 21 11 52 15 85 9 88 10 85 23 -1 7 5 12 13 12 8 0 15 -3 15 -7 0 -5 47
-19 104 -33 57 -14 102 -28 100 -32 -3 -5 3 -8 13 -8 22 0 186 -42 193 -49 5
-7 128 -40 173 -49 16 -2 38 0 50 7 24 12 127 32 167 33 20 0 22 1 7 9 -11 6
-31 6 -54 0 -86 -22 -202 -24 -269 -5 -35 10 -64 22 -64 26 0 4 15 9 33 12 17
3 48 8 67 11 19 4 51 7 70 6 26 0 31 3 19 9 -10 6 -60 3 -133 -7 -111 -16
-121 -16 -184 1 -37 10 -71 21 -76 26 -5 5 23 12 63 16 39 3 74 10 77 15 2 5
19 6 37 3 30 -4 31 -4 7 6 -18 8 -43 8 -85 1 -129 -22 -174 -23 -228 -6 -28
10 -56 21 -60 25 -9 8 107 23 173 22 l45 -1 -55 20 c-63 22 -111 65 -133 117
-9 21 -28 91 -42 157 -15 66 -32 125 -39 131 -8 8 -36 7 -105 -3 -51 -8 -96
-12 -98 -9 -3 3 16 35 43 71 l47 67 44 -6 c40 -5 43 -4 43 19 0 21 -61 297
-76 349 -5 16 -10 14 -40 -15 -27 -26 -41 -33 -69 -31 -24 2 -34 -1 -33 -10 2
-9 -12 -13 -49 -13 -29 0 -53 2 -53 5 0 6 36 48 103 120 28 30 63 69 79 85
l27 30 -15 60 c-9 33 -19 64 -24 68 -4 5 -27 3 -51 -4 -24 -7 -66 -11 -92 -10
-33 1 -58 -4 -80 -17 -20 -12 -61 -22 -111 -26 -44 -4 -104 -14 -135 -22 -30
-8 -68 -14 -84 -14 -15 0 -41 -10 -58 -22 -28 -21 -32 -22 -43 -6 -7 9 -29 18
-49 20 -21 2 -38 8 -38 13 0 6 71 28 158 51 87 23 185 49 218 59 33 9 81 21
106 25 35 6 208 85 226 103 4 4 -10 69 -62 297 -67 291 -76 340 -65 361 23 42
39 39 413 -70 l67 -20 0 45 c0 85 43 146 115 163 22 5 41 9 41 10 1 1 32 -8
70 -20z m4229 -1095 c42 -9 87 -45 109 -89 17 -31 18 -38 5 -46 -18 -11 -32
-12 -25 0 3 4 -15 17 -39 27 -25 10 -45 21 -45 25 0 4 -21 29 -47 54 -53 52
-54 51 42 29z m305 -70 c52 -21 95 -104 54 -104 -10 0 -14 6 -11 14 8 19 -3
28 -18 16 -17 -14 -59 2 -78 30 -8 12 -30 33 -48 47 l-34 25 50 -7 c27 -4 65
-13 85 -21z m-1080 -134 c25 -10 38 -19 30 -19 -18 -1 -87 22 -96 32 -13 13
20 6 66 -13z m93 -27 c-7 -2 -19 -2 -25 0 -7 3 -2 5 12 5 14 0 19 -2 13 -5z
m-243 -33 c0 -5 8 -10 18 -10 14 0 15 -2 2 -10 -8 -5 -27 -10 -42 -10 -27 0
-27 1 -10 19 19 22 32 26 32 11z m-15 -99 c7 -13 -48 -51 -74 -51 -34 0 -24
24 17 42 44 20 49 21 57 9z m-4225 -19 c0 -5 6 -9 13 -10 91 -11 117 -16 117
-25 0 -14 -57 -170 -82 -225 -16 -33 -25 -42 -41 -40 -19 3 -21 11 -24 83 -2
44 -8 106 -13 137 -9 45 -8 61 2 73 14 16 28 19 28 7z m3164 -140 c6 -9 -72
-47 -80 -39 -5 4 54 44 68 46 4 1 9 -3 12 -7z m1562 -402 c6 -6 75 -17 154
-26 79 -8 146 -17 151 -19 4 -3 41 -11 81 -19 49 -10 118 -35 201 -75 70 -34
133 -61 141 -61 22 0 72 -46 86 -80 7 -17 11 -32 9 -33 -47 -27 -73 -36 -78
-29 -4 6 -26 6 -56 1 -149 -25 -203 -29 -388 -29 -198 -1 -261 3 -542 34 -77
9 -219 20 -315 25 -174 9 -440 55 -422 73 4 4 27 0 52 -9 56 -20 153 -19 224
1 53 16 55 18 93 91 23 46 46 77 58 81 20 5 49 17 92 37 17 8 27 7 40 -5 18
-15 91 -41 148 -53 59 -11 136 12 195 59 62 50 62 50 76 36z m-4156 -100 c-20
-13 -40 -13 -40 0 0 6 12 10 28 10 21 0 24 -2 12 -10z m-129 -10 c30 -6 67
-16 84 -22 27 -11 23 -13 -70 -25 -102 -13 -123 -10 -200 22 -30 12 -29 13 30
19 65 8 99 13 101 15 1 0 26 -4 55 -9z m-182 -52 c39 -12 68 -25 65 -30 -3 -4
-32 -8 -65 -8 -45 0 -65 5 -80 19 -20 18 -19 41 1 41 5 0 41 -10 79 -22z"/>
<path d="M1335 3369 c-37 -19 -65 -72 -65 -123 0 -188 205 -415 375 -416 94 0
137 43 138 137 0 77 -24 142 -87 226 -49 67 -145 149 -196 169 -37 15 -142 19
-165 7z m256 -183 c17 -14 39 -26 49 -26 9 0 22 -6 28 -13 12 -15 49 -184 41
-191 -3 -3 -48 7 -100 23 -52 16 -123 38 -159 48 l-65 18 -22 85 c-29 117 -30
113 16 105 23 -4 42 -2 45 4 10 15 132 -24 167 -53z"/>
<path d="M1440 3208 c0 -5 -15 -8 -32 -6 -37 3 -37 2 -15 -88 l12 -49 134 -38
c73 -21 135 -36 138 -33 8 8 -12 91 -22 90 -6 -1 -20 2 -31 7 -19 6 -23 3 -27
-20 -8 -36 -29 -44 -72 -27 -61 26 -95 113 -54 139 22 13 64 2 89 -25 16 -17
20 -18 20 -6 0 9 -6 20 -12 25 -21 16 -128 42 -128 31z"/>
<path d="M1480 3145 c0 -27 29 -73 50 -80 43 -14 54 25 19 69 -23 29 -69 36
-69 11z m43 -10 c7 -16 -8 -29 -23 -20 -15 9 -12 35 4 35 8 0 16 -7 19 -15z"/>
<path d="M790 3271 c-12 -23 2 -91 113 -581 l13 -54 94 -17 c52 -10 116 -24
143 -32 57 -18 56 -22 26 104 -11 49 -19 95 -16 102 3 11 57 -198 57 -224 0
-5 -5 -7 -10 -4 -6 3 -23 -7 -38 -24 -26 -29 -31 -30 -80 -24 -42 5 -53 3 -58
-10 -7 -20 23 -144 43 -175 14 -22 13 -25 -6 -39 -12 -8 -21 -21 -21 -30 0 -9
-6 -13 -15 -9 -10 3 -17 -2 -20 -17 -5 -19 45 -273 76 -389 l10 -38 55 0 c48
0 55 2 50 18 -15 53 -38 174 -33 178 5 5 52 -7 192 -49 69 -21 117 -26 101 -9
-7 6 19 56 38 71 19 16 12 31 -15 31 -11 0 -22 6 -25 14 -3 8 -13 12 -23 9
-10 -3 -32 2 -49 11 -16 8 -32 13 -34 11 -3 -3 -19 0 -36 6 -22 7 -32 17 -32
32 0 18 1 19 18 5 9 -9 53 -25 97 -36 44 -11 79 -25 78 -30 -1 -5 9 -7 24 -4
15 3 29 -1 34 -9 6 -9 12 -10 17 -4 4 6 32 12 62 14 30 2 76 11 102 21 55 21
103 16 92 -9 -4 -9 -6 -26 -5 -38 0 -18 -5 -23 -23 -23 -14 0 -26 -3 -29 -7
-2 -5 -2 -2 -1 5 2 6 -1 12 -6 12 -17 0 -25 -5 -23 -12 3 -8 -3 -9 -59 -12
-35 -2 -44 -12 -29 -30 10 -12 7 -17 -16 -30 l-28 -15 26 -1 c26 0 51 -21 62
-51 3 -10 39 -25 94 -41 475 -138 651 -190 669 -197 12 -5 24 -22 27 -39 5
-27 12 -31 58 -41 29 -6 54 -9 57 -6 3 3 -13 87 -36 188 -23 100 -73 324 -112
497 -101 451 -111 491 -118 486 -4 -2 -7 9 -8 24 -1 15 -4 36 -8 46 -6 16 -9
16 -29 -8 -21 -25 -25 -26 -77 -18 -77 12 -168 12 -175 0 -3 -5 1 -10 9 -10
18 0 81 -35 117 -65 30 -24 109 -130 109 -145 0 -18 -20 -11 -53 20 -39 36
-53 39 -31 5 8 -13 14 -32 12 -42 -2 -14 -11 -10 -43 23 -85 85 -197 140 -305
149 -116 10 -150 16 -150 26 0 5 11 9 24 9 13 0 34 8 47 19 13 10 42 27 64 38
50 26 237 89 289 98 21 3 35 9 32 12 -3 4 -70 25 -149 48 -78 23 -152 45 -164
49 -22 7 -23 5 -23 -38 0 -58 -23 -116 -58 -141 -37 -27 -140 -28 -202 0 -118
52 -224 160 -276 281 -30 70 -14 61 -214 119 -52 15 -122 36 -154 46 -76 24
-103 24 -116 0z m1510 -521 c0 -5 -5 -10 -11 -10 -5 0 -7 5 -4 10 3 6 8 10 11
10 2 0 4 -4 4 -10z m-1203 -15 c3 -9 3 -19 -1 -22 -7 -7 -36 16 -36 28 0 15
30 10 37 -6z m558 -15 c-45 -11 -87 -11 -80 0 3 6 30 9 58 9 45 -1 48 -2 22
-9z m-555 -30 c0 10 3 10 15 0 26 -22 19 -43 -12 -35 -35 8 -58 29 -48 45 5 8
12 6 26 -6 13 -12 19 -13 19 -4z m236 -87 c-7 -8 -36 17 -36 30 0 6 7 2 15 -9
14 -18 14 -18 16 6 2 25 2 25 6 2 3 -13 2 -26 -1 -29z m427 37 c37 -6 89 -21
115 -35 56 -30 38 -28 -103 12 -126 35 -128 40 -12 23z m-394 -7 c-3 -21 3
-24 18 -12 11 10 14 10 9 2 -5 -9 -1 -13 11 -14 12 0 14 -2 4 -6 -11 -5 -11
-7 0 -14 9 -6 10 -9 2 -9 -6 0 -14 4 -18 10 -3 5 -13 6 -22 3 -10 -4 -14 -2
-9 5 3 6 2 13 -4 17 -13 8 -13 25 0 25 6 0 9 -3 9 -7z m68 -55 c-3 -7 -5 -2
-5 12 0 14 2 19 5 13 2 -7 2 -19 0 -25z m50 13 c3 -11 11 -22 19 -25 12 -4 12
-2 4 14 -8 16 -8 18 4 14 16 -6 29 -44 14 -44 -20 0 -48 21 -49 38 0 14 -2 14
-8 -2 -7 -19 -8 -19 -13 2 -4 15 -2 22 9 22 8 0 17 -9 20 -19z m111 -31 c2 -4
11 -6 21 -3 21 5 42 -18 22 -25 -11 -4 -11 -6 0 -13 11 -7 11 -9 1 -9 -7 0
-15 7 -18 15 -4 8 -10 13 -14 10 -4 -3 -11 3 -14 12 -6 15 -8 15 -16 3 -8 -13
-10 -12 -10 3 0 9 -4 17 -10 17 -5 0 -7 -8 -4 -17 5 -15 4 -16 -5 -3 -6 8 -11
19 -11 24 0 10 54 -2 58 -14z m-303 -20 c3 -5 -1 -10 -10 -10 -9 0 -13 5 -10
10 3 6 8 10 10 10 2 0 7 -4 10 -10z m113 -34 c1 -2 -17 -3 -41 -2 -24 0 -44 6
-44 12 0 8 12 8 41 2 22 -5 42 -11 44 -12z m-119 -5 c12 -8 10 -12 -12 -22
-32 -15 -32 -11 -7 -128 12 -52 18 -96 16 -99 -7 -6 -10 3 -36 123 -13 55 -25
105 -27 112 -4 10 13 19 42 22 6 0 17 -3 24 -8z m-111 -80 c12 -24 21 -51 19
-60 -3 -10 -5 -8 -6 7 -1 14 -10 26 -27 32 -40 16 -46 13 -40 -22 5 -25 4 -28
-3 -13 -5 11 -10 39 -10 63 -1 39 1 43 21 40 15 -2 31 -18 46 -47z m762 -71
c13 -8 13 -10 -2 -10 -9 0 -20 5 -23 10 -8 13 5 13 25 0z m-773 -6 c-3 -3 -12
-4 -19 -1 -8 3 -5 6 6 6 11 1 17 -2 13 -5z m273 -24 c0 -5 -2 -10 -4 -10 -3 0
-8 5 -11 10 -3 6 -1 10 4 10 6 0 11 -4 11 -10z m30 -10 c0 -5 -2 -10 -4 -10
-3 0 -8 5 -11 10 -3 6 -1 10 4 10 6 0 11 -4 11 -10z m486 -359 c-6 -9 71 -34
108 -35 11 -1 20 -8 21 -16 2 -12 -7 -16 -31 -17 -19 0 -34 3 -34 7 0 7 -52
30 -67 29 -9 -1 -22 24 -17 33 3 4 10 8 15 8 6 0 8 -4 5 -9z m169 -59 c0 -18
-20 -15 -23 4 -3 10 1 15 10 12 7 -3 13 -10 13 -16z m57 -21 c43 -7 68 -15 68
-20 0 -4 20 -6 44 -4 46 4 67 -10 47 -30 -9 -9 -11 -8 -6 6 4 10 2 17 -4 17
-6 0 -11 -7 -11 -15 0 -20 -17 -19 -28 1 -7 12 -11 13 -17 5 -5 -8 -11 -9 -19
-1 -7 5 -25 11 -40 12 -14 1 -26 6 -26 10 0 4 -3 7 -7 7 -25 -4 -43 3 -43 16
0 12 4 13 18 6 9 -5 20 -10 24 -10z"/>
<path d="M1120 2445 c0 -15 38 -41 47 -32 2 3 0 15 -7 26 -12 24 -40 28 -40 6z"/>
<path d="M962 2492 c-10 -7 -10 -20 -1 -60 12 -58 19 -59 43 -8 20 42 20 56 1
56 -8 0 -15 5 -15 10 0 12 -10 13 -28 2z"/>
<path d="M368 2403 c6 -2 18 -2 25 0 6 3 1 5 -13 5 -14 0 -19 -2 -12 -5z"/>
<path d="M4490 2210 c19 -13 30 -13 30 0 0 6 -10 10 -22 10 -19 0 -20 -2 -8
-10z"/>
<path d="M915 2190 c3 -5 8 -10 11 -10 2 0 4 5 4 10 0 6 -5 10 -11 10 -5 0 -7
-4 -4 -10z"/>
<path d="M808 2123 c7 -3 16 -2 19 1 4 3 -2 6 -13 5 -11 0 -14 -3 -6 -6z"/>
<path d="M1788 2083 c7 -3 16 -2 19 1 4 3 -2 6 -13 5 -11 0 -14 -3 -6 -6z"/>
<path d="M1655 2030 c-3 -6 1 -7 9 -4 18 7 21 14 7 14 -6 0 -13 -4 -16 -10z"/>
<path d="M1411 1735 c-19 -9 -64 -15 -104 -15 -42 0 -67 -4 -61 -9 8 -8 330
-104 689 -206 117 -34 133 -36 165 -25 36 13 70 37 70 51 0 4 -28 17 -62 28
-61 20 -655 191 -660 191 -2 -1 -18 -7 -37 -15z"/>
<path d="M1750 1723 c0 -19 21 -27 33 -13 9 10 9 11 -2 5 -8 -4 -17 -2 -22 6
-6 9 -9 10 -9 2z"/>
<path d="M1810 1724 c0 -1 8 -8 17 -15 9 -8 14 -9 10 -2 -4 7 0 13 10 16 10 3
6 4 -9 4 -16 -1 -28 -2 -28 -3z"/>
<path d="M1176 1712 l-48 -3 7 -46 c14 -97 54 -252 70 -277 34 -52 79 -70 310
-122 42 -9 165 -12 160 -3 -3 4 6 10 20 13 17 4 22 11 18 22 -4 11 0 14 18 12
13 -1 47 1 74 6 l50 8 -47 19 c-26 10 -156 50 -289 89 -133 38 -243 71 -244
72 -2 3 -41 168 -47 198 -2 11 -15 14 -52 12z"/>
<path d="M1891 1713 c-1 -6 -4 -20 -7 -30 -5 -17 -5 -17 6 0 6 10 9 23 6 30
-3 9 -5 9 -5 0z"/>
<path d="M1910 1686 c0 -2 7 -9 15 -16 9 -7 15 -8 15 -2 0 5 -7 12 -15 16 -8
3 -15 4 -15 2z"/>
<path d="M1269 1600 c10 -44 20 -82 22 -84 6 -5 527 -153 564 -160 17 -3 44
-2 60 2 25 7 30 14 30 40 0 35 2 36 38 23 17 -7 32 -5 50 4 15 8 28 9 31 4 2
-5 3 -4 2 3 -1 7 -16 15 -32 16 -16 2 -31 8 -34 12 -4 7 -727 220 -745 220 -1
0 5 -36 14 -80z m511 -131 c-11 -8 -8 -9 13 -4 19 4 26 2 22 -5 -3 -5 -2 -10
4 -10 6 0 8 -7 5 -15 -4 -8 -1 -15 5 -15 6 0 11 9 11 20 0 12 7 20 18 20 14 0
14 -2 3 -9 -9 -6 -11 -16 -7 -27 7 -17 9 -17 21 6 8 14 14 20 15 13 0 -6 9 -9
22 -5 14 3 19 1 14 -6 -3 -6 -2 -13 4 -17 14 -9 12 -37 -2 -32 -7 2 -14 9 -14
15 -3 24 -6 27 -12 11 -6 -13 -12 -14 -32 -6 -14 5 -34 11 -44 12 -10 1 -25
10 -32 20 -11 14 -14 15 -15 4 0 -8 -4 -6 -9 6 -13 30 -12 35 8 35 15 0 15 -2
2 -11z"/>
<path d="M1378 1263 c7 -3 16 -2 19 1 4 3 -2 6 -13 5 -11 0 -14 -3 -6 -6z"/>
<path d="M1418 1253 c7 -3 16 -2 19 1 4 3 -2 6 -13 5 -11 0 -14 -3 -6 -6z"/>
<path d="M2250 1068 c-42 -8 -50 -12 -35 -18 19 -7 182 14 193 25 9 8 -98 3
-158 -7z"/>
<path d="M1360 1051 c0 -4 21 -14 48 -21 57 -16 72 -27 52 -40 -11 -7 -7 -9
15 -5 17 3 45 7 64 9 18 3 38 9 44 15 6 6 27 11 47 12 42 1 97 16 65 18 -11 1
-59 -4 -108 -10 -79 -10 -94 -9 -152 10 -73 24 -75 24 -75 12z"/>
<path d="M1750 1050 c0 -5 17 -12 38 -15 20 -4 58 -13 84 -21 54 -16 108 -18
108 -4 0 6 15 10 33 10 17 1 59 7 92 14 53 11 57 13 33 19 -15 4 -36 3 -45 -2
-10 -6 -59 -15 -109 -21 -82 -9 -98 -8 -155 10 -73 23 -79 23 -79 10z"/>
<path d="M1228 1043 c7 -3 16 -2 19 1 4 3 -2 6 -13 5 -11 0 -14 -3 -6 -6z"/>
<path d="M2508 1007 c-38 -5 -68 -14 -68 -19 0 -7 25 -8 68 -4 98 10 132 17
132 27 0 11 -42 10 -132 -4z"/>
<path d="M1123 997 c2 -7 22 -15 44 -19 22 -3 57 -14 78 -22 48 -21 91 -21 99
0 9 25 9 25 -42 18 -35 -4 -67 0 -116 14 -43 13 -66 16 -63 9z"/>
<path d="M1975 980 c3 -5 13 -10 21 -10 8 0 14 5 14 10 0 6 -9 10 -21 10 -11
0 -17 -4 -14 -10z"/>
<path d="M2310 980 c-8 -5 -33 -10 -54 -10 -22 0 -36 -3 -32 -7 11 -11 88 -3
116 13 22 12 23 13 5 13 -11 1 -27 -4 -35 -9z"/>
<path d="M1730 953 c-53 -10 -43 -23 18 -23 48 0 62 3 62 15 0 15 -25 18 -80
8z"/>
<path d="M2127 944 c18 -9 30 -20 27 -25 -3 -5 0 -9 5 -9 6 0 11 5 11 10 0 14
27 13 32 -1 2 -6 17 -12 33 -14 71 -6 115 -19 131 -36 10 -11 14 -22 10 -26
-3 -4 -52 -10 -107 -14 -100 -6 -118 -14 -119 -47 0 -10 5 -9 22 2 33 23 75
20 101 -8 12 -13 38 -27 57 -30 19 -4 48 -12 64 -18 27 -11 27 -12 10 -25 -10
-7 -27 -13 -38 -13 -12 0 -28 -5 -36 -10 -24 -17 131 0 158 17 15 9 34 12 52
8 39 -9 220 15 244 32 13 8 34 10 57 7 37 -6 205 13 224 25 6 3 39 6 75 7 82
1 234 24 223 34 -15 13 -157 44 -195 41 -28 -1 -39 3 -48 19 -13 24 -65 26
-175 6 -62 -11 -79 -10 -144 6 -40 11 -76 17 -78 14 -13 -13 9 -33 48 -46 24
-8 63 -22 85 -31 40 -17 42 -17 62 3 24 24 58 18 48 -9 -4 -9 -1 -20 5 -24 13
-7 -83 -23 -136 -22 -16 1 -61 10 -100 21 -38 11 -95 25 -125 32 -95 21 -150
42 -150 56 0 10 14 14 49 14 30 0 53 5 60 14 16 19 -4 32 -24 16 -7 -6 -58
-14 -112 -17 -107 -6 -208 14 -220 42 -4 11 -21 15 -62 15 l-56 0 32 -16z
m322 -98 c16 -13 137 -56 220 -76 24 -7 40 -15 35 -19 -5 -5 -41 -13 -80 -19
-65 -11 -81 -10 -175 13 -125 31 -149 40 -149 60 0 11 12 15 50 15 36 0 50 4
50 14 0 12 11 22 29 25 3 1 12 -5 20 -13z m651 -11 c17 -9 30 -18 30 -21 0 -6
-57 1 -105 13 l-30 7 35 7 c19 3 36 7 38 8 2 0 16 -6 32 -14z"/>
<path d="M2795 951 c-35 -4 -51 -11 -53 -22 -2 -14 4 -15 45 -8 26 4 56 8 66
8 10 1 17 6 15 13 -5 15 -12 16 -73 9z"/>
<path d="M2650 928 c0 -5 11 -8 25 -8 14 0 25 3 25 8 0 4 -11 7 -25 7 -14 0
-25 -3 -25 -7z"/>
<path d="M1501 901 c-21 -14 6 -36 46 -37 28 -2 31 0 24 20 -9 23 -47 32 -70
17z"/>
<path d="M1065 891 c-26 -6 -23 -8 25 -13 59 -6 73 -3 50 12 -17 11 -31 11
-75 1z"/>
<path d="M1963 888 c-63 -14 -52 -28 22 -28 65 0 81 10 46 30 -11 5 -21 10
-23 9 -2 -1 -22 -5 -45 -11z"/>
<path d="M1738 833 c-38 -10 -11 -33 39 -33 18 0 24 5 21 18 -3 17 -29 24 -60
15z"/>
<path d="M1220 821 c0 -10 146 -25 160 -16 6 4 8 11 5 16 -8 11 -165 12 -165
0z"/>
<path d="M1095 782 c6 -5 28 -13 50 -17 26 -4 36 -3 30 3 -5 5 -28 13 -50 17
-26 4 -36 3 -30 -3z"/>
<path d="M1535 750 c-4 -6 9 -10 32 -10 28 0 34 3 23 10 -20 13 -47 13 -55 0z"/>
<path d="M1970 741 c0 -17 6 -19 45 -18 34 2 45 6 43 17 -2 10 -18 16 -46 18
-36 3 -42 0 -42 -17z"/>
<path d="M1795 670 c3 -5 21 -10 38 -10 24 0 28 3 17 10 -20 13 -63 13 -55 0z"/>
<path d="M2148 673 c-19 -5 -24 -18 -10 -27 14 -8 53 6 49 17 -4 13 -16 16
-39 10z"/>
<path d="M2951 3291 c-24 -16 -4 -26 43 -23 39 3 45 6 35 18 -13 16 -57 18
-78 5z"/>
<path d="M5498 583 c7 -3 16 -2 19 1 4 3 -2 6 -13 5 -11 0 -14 -3 -6 -6z"/>
</g>
</svg>
